<?xml version="1.0" encoding="utf-8"?>
<!-- Generator: Adobe Illustrator 19.2.1, SVG Export Plug-In . SVG Version: 6.00 Build 0)  -->
<svg version="1.1" id="Layer_1" xmlns="http://www.w3.org/2000/svg" xmlns:xlink="http://www.w3.org/1999/xlink" x="0px" y="0px"
	 viewBox="0 0 391.2 391.2" style="enable-background:new 0 0 391.2 391.2;" xml:space="preserve">
	 <style type="text/css">
	.st0{fill:#134670;}
</style>
<g>
	<path class="st0" d="M57.3,333.9c37,37,86.1,57.3,138.3,57.3c52.2,0,101.4-20.3,138.3-57.3c37-37,57.3-86.1,57.3-138.3
		c0-52.2-20.3-101.4-57.3-138.3C297,20.3,247.8,0,195.6,0C143.4,0,94.2,20.3,57.3,57.3C20.3,94.2,0,143.4,0,195.6
		C0,247.8,20.3,297,57.3,333.9L57.3,333.9z M369.6,195.6c0,95.9-78.1,174-174,174c-95.9,0-174-78.1-174-174c0-95.9,78.1-174,174-174
		C291.5,21.6,369.6,99.7,369.6,195.6L369.6,195.6z M369.6,195.6"/>
	<path class="st0" d="M188,241.4c4.2,4.2,11,4.2,15.3,0l52.6-52.6c2.2-2.1,3.2-4.9,3.2-7.6c0-2.7-1.1-5.5-3.2-7.6c-4.2-4.2-11-4.2-15.3,0l-45,45
		l-45-45c-4.2-4.2-11-4.2-15.3,0c-4.2,4.2-4.2,11,0,15.3L188,241.4z M135.4,188.9"/>
</g>
</svg>
