<?xml version="1.0" encoding="utf-8"?>
<!-- Generator: Adobe Illustrator 19.0.0, SVG Export Plug-In . SVG Version: 6.00 Build 0)  -->
<svg version="1.1" id="Layer_1" xmlns="http://www.w3.org/2000/svg" xmlns:xlink="http://www.w3.org/1999/xlink" x="0px" y="0px"
	 viewBox="0 0 195.7 147.4" style="enable-background:new 0 0 195.7 147.4;" xml:space="preserve">
<style type="text/css">
	.st0{fill:#CFCFCF;}
</style>
<g>
	<g>
		<path class="st0" d="M195.2,70.7L174.9,7.3c-0.9-2.7-2.7-4.9-5.2-6.1c-2.5-1.3-5.3-1.5-8-0.7L58.3,33.7c-5.5,1.8-8.6,7.7-6.8,13.2
			l4.1,12.9H10.5C4.7,59.8,0,64.5,0,70.3v66.6c0,5.8,4.7,10.5,10.5,10.5h115.8c5.8,0,10.5-4.7,10.5-10.5v-36.4l51.6-16.6
			C194,82.2,197,76.2,195.2,70.7L195.2,70.7z M126.3,137.8H10.5c-0.5,0-0.9-0.4-0.9-0.9V70.3c0-0.5,0.4-0.9,0.9-0.9h115.8
			c0.5,0,0.9,0.4,0.9,0.9v66.6C127.2,137.4,126.8,137.8,126.3,137.8L126.3,137.8z M165.3,9.7c0.2,0.1,0.4,0.2,0.5,0.5l4.1,12.6
			L64.7,56.6L60.7,44c-0.2-0.5,0.1-1,0.6-1.2L164.6,9.6c0.1,0,0.2,0,0.3,0C165.1,9.6,165.2,9.7,165.3,9.7L165.3,9.7z M126.3,59.8
			H86.2L172.8,32l13.3,41.6c0.2,0.5-0.1,1-0.6,1.2l-48.7,15.6V70.3C136.8,64.5,132.1,59.8,126.3,59.8L126.3,59.8z M126.3,59.8"/>
	</g>
	<path class="st0" d="M45.2,83.6H24.7c-2.7,0-4.8,2.2-4.8,4.8c0,2.7,2.1,4.8,4.8,4.8h20.5c2.7,0,4.8-2.1,4.8-4.8
		C50,85.7,47.9,83.6,45.2,83.6L45.2,83.6z M45.2,83.6"/>
	<path class="st0" d="M68.2,93.2c2.7,0,4.8-2.1,4.8-4.8c0-2.6-2.1-4.8-4.8-4.8h-7.5c-2.7,0-4.8,2.2-4.8,4.8c0,2.7,2.1,4.8,4.8,4.8
		H68.2z M68.2,93.2"/>
	<path class="st0" d="M119.4,104.4c0-2.6-2.2-4.8-4.8-4.8H91.1c-2.6,0-4.8,2.2-4.8,4.8v20.8c0,2.6,2.1,4.8,4.8,4.8h23.5
		c2.6,0,4.8-2.2,4.8-4.8V104.4z M109.8,109.2v11.2H95.9v-11.2H109.8z M109.8,109.2"/>
</g>
</svg>
