<?xml version="1.0" encoding="utf-8"?>
<!-- Generator: Adobe Illustrator 19.2.1, SVG Export Plug-In . SVG Version: 6.00 Build 0)  -->
<svg version="1.1" id="Layer_1" xmlns="http://www.w3.org/2000/svg" xmlns:xlink="http://www.w3.org/1999/xlink" x="0px" y="0px"
	 viewBox="0 0 35.2 35.2" style="enable-background:new 0 0 35.2 35.2;" xml:space="preserve">
<style type="text/css">
	.st10{fill:#fff;}
</style>	 
<g>
	<path class="st10" d="M17.6,0C7.8,0,0,7.8,0,17.6c0,9.8,7.8,17.6,17.6,17.6c9.8,0,17.6-7.8,17.6-17.6C35.2,7.8,27.4,0,17.6,0L17.6,0z M20.2,17.9
		l6,6c0.2,0.2,0.2,0.4,0.2,0.6c0,0.2-0.1,0.4-0.2,0.6L25,26.2c-0.2,0.2-0.4,0.2-0.6,0.2c-0.2,0-0.4-0.1-0.6-0.2l-6-6
		c-0.2-0.2-0.4-0.2-0.6,0l-6,6c-0.2,0.2-0.4,0.2-0.6,0.2c-0.2,0-0.4-0.1-0.6-0.2L9.1,25c-0.2-0.2-0.2-0.4-0.2-0.6
		c0-0.2,0.1-0.4,0.2-0.6l6-6c0.2-0.2,0.2-0.4,0-0.6l-6-6C9,11.2,8.9,11,8.9,10.8c0-0.2,0.1-0.4,0.2-0.6l1.1-1.1
		c0.2-0.2,0.4-0.2,0.6-0.2c0.2,0,0.4,0.1,0.6,0.2l6,6c0.2,0.2,0.4,0.2,0.6,0l6-6c0.2-0.2,0.4-0.2,0.6-0.2c0.2,0,0.4,0.1,0.6,0.2
		l1.1,1.1c0.2,0.2,0.2,0.4,0.2,0.6c0,0.2-0.1,0.4-0.2,0.6l-6,6C20,17.4,20,17.8,20.2,17.9L20.2,17.9z M20.2,17.9"/>
</g>
</svg>
