<?xml version="1.0" encoding="utf-8"?>
<!-- Generator: Adobe Illustrator 19.2.1, SVG Export Plug-In . SVG Version: 6.00 Build 0)  -->
<svg version="1.1" id="Layer_1" xmlns="http://www.w3.org/2000/svg" xmlns:xlink="http://www.w3.org/1999/xlink" x="0px" y="0px"
	 viewBox="0 0 17.5 17.5" style="enable-background:new 0 0 17.5 17.5;" xml:space="preserve">
<style type="text/css">
	.st11{fill:#cfcfcf;}
</style>		 
<g>
	<path class="st11" d="M11.3,9c-0.2-0.2-0.2-0.4,0-0.6l6-6c0.2-0.2,0.2-0.4,0.2-0.6c0-0.2-0.1-0.4-0.2-0.6l-1.1-1.1C16,0.1,15.8,0,15.6,0
		c-0.2,0-0.4,0.1-0.6,0.2l-6,6c-0.2,0.2-0.4,0.2-0.6,0l-6-6C2.3,0.1,2.1,0,1.9,0C1.8,0,1.5,0.1,1.4,0.2L0.2,1.4C0.1,1.5,0,1.8,0,1.9
		c0,0.2,0.1,0.4,0.2,0.6l6,6c0.2,0.2,0.2,0.4,0,0.6l-6,6C0.1,15.2,0,15.4,0,15.6c0,0.2,0.1,0.4,0.2,0.6l1.1,1.1
		c0.2,0.2,0.4,0.2,0.6,0.2c0.2,0,0.4-0.1,0.6-0.2l6-6c0.2-0.2,0.4-0.2,0.6,0l6,6c0.2,0.2,0.4,0.2,0.6,0.2c0.2,0,0.4-0.1,0.6-0.2
		l1.1-1.1c0.2-0.2,0.2-0.4,0.2-0.6c0-0.2-0.1-0.4-0.2-0.6L11.3,9z M11.3,9"/>
</g>
</svg>
