<?xml version="1.0" encoding="utf-8"?>
<!-- Generator: Adobe Illustrator 19.2.1, SVG Export Plug-In . SVG Version: 6.00 Build 0)  -->
<svg version="1.1" id="Layer_1" xmlns="http://www.w3.org/2000/svg" xmlns:xlink="http://www.w3.org/1999/xlink" x="0px" y="0px"
	 viewBox="0 0 355.9 410" style="enable-background:new 0 0 355.9 410;" xml:space="preserve">
<style type="text/css">
	.st0{clip-path:url(#SVGID_2_);fill:#fff;}
</style>
<g>
	<g>
		<defs>
			<rect id="SVGID_1_" width="355.9" height="410"/>
		</defs>
		<clipPath id="SVGID_2_">
			<use xlink:href="#SVGID_1_"  style="overflow:visible;"/>
		</clipPath>
		<path class="st0" d="M100.1,409.6c-27.3-56.8-12.8-89.4,8.2-120c23-33.6,28.9-66.8,28.9-66.8s18.1,23.5,10.8,60.2
			c31.9-35.5,37.9-92.1,33.1-113.8c72.1,50.4,102.9,159.5,61.4,240.4c220.9-125,55-312.1,26.1-333.1c9.6,21.1,11.5,56.7-8,74.1
			C227.7,25.6,146.3,0,146.3,0c9.6,64.4-34.9,134.9-77.9,187.5c-1.5-25.7-3.1-43.4-16.6-68c-3,46.7-38.7,84.7-48.4,131.5
			C-9.7,314.3,13.2,360.6,100.1,409.6L100.1,409.6z M100.1,409.6"/>
	</g>
</g>
</svg>
