<?xml version="1.0" encoding="utf-8"?>
<!-- Generator: Adobe Illustrator 19.2.1, SVG Export Plug-In . SVG Version: 6.00 Build 0)  -->
<svg version="1.1" id="Layer_1" xmlns="http://www.w3.org/2000/svg" xmlns:xlink="http://www.w3.org/1999/xlink" x="0px" y="0px"
	 viewBox="0 0 384 387.8" style="enable-background:new 0 0 384 387.8;" xml:space="preserve">
<style type="text/css">
	.st0{clip-path:url(#SVGID_2_);fill:#fff;}
</style>
<g>
	<g>
		<defs>
			<rect id="SVGID_1_" width="384" height="387.8"/>
		</defs>
		<clipPath id="SVGID_2_">
			<use xlink:href="#SVGID_1_"  style="overflow:visible;"/>
		</clipPath>
		<path class="st0" d="M92.4,163.4c10.7-1.4,21.4,2.2,29,9.8l19.2,19.2l18.2-18.1l-26.2-26.2c-4.1-4.1-4.1-10.7,0-14.8
			c4.1-4.1,10.7-4.1,14.8,0l26.2,26.2l18.2-18.1l-19.3-19.3c-7.6-7.6-11.3-18.4-9.8-29c3.2-24.3-4.6-49.8-23.2-68.5
			c-19-19-45.1-26.7-69.8-23c-3.9,0.6-5.5,5.4-2.7,8.2l24.7,24.7c11.8,11.8,11.8,30.8,0,42.5L76.4,92.4c-11.8,11.8-30.8,11.8-42.5,0
			L9.1,67.6c-2.8-2.8-7.6-1.2-8.2,2.7c-3.7,24.7,4,50.8,23,69.8C42.7,158.8,68.1,166.6,92.4,163.4L92.4,163.4z M92.4,163.4"/>
		<path class="st0" d="M246.2,196L228,214l107.8,107.8c4.1,4.1,4.1,10.7,0,14.8c-4.1,4.1-10.7,4.1-14.8,0L213.2,228.8l-18.2,18.1
			L306.2,358c14.1,14.1,36.9,14,51-0.1c14.1-14.1,14.1-36.9,0.1-51L246.2,196z M246.2,196"/>
		<path class="st0" d="M287.9,124h47.9l47.9-95.8L359.8,4.3l-95.8,47.8V100L133.7,229.9l-23.4-23.4l-94.4,94.4
			c-19.7,19.7-19.7,51.5,0,71.2c19.7,19.7,51.5,19.7,71.2,0l94.4-94.4l-23.9-23.9L287.9,124z M287.9,124"/>
	</g>
</g>
</svg>
