<?xml version="1.0" encoding="utf-8"?>
<!-- Generator: Adobe Illustrator 19.0.0, SVG Export Plug-In . SVG Version: 6.00 Build 0)  -->
<svg version="1.1" id="Layer_1" xmlns="http://www.w3.org/2000/svg" xmlns:xlink="http://www.w3.org/1999/xlink" x="0px" y="0px"
	 viewBox="0 0 255.4 392.9" style="enable-background:new 0 0 255.4 392.9;" xml:space="preserve">
<style type="text/css">
	.st0{fill:#CFCFCF;}
</style>
<g>
	<path class="st0" d="M127.4,249.1c-2.6,0-5,1-6.8,2.8c-1.8,1.8-2.8,4.2-2.8,6.8c0,2.6,1,5,2.8,6.8c1.8,1.8,4.2,2.8,6.8,2.8
		c2.6,0,5-1,6.8-2.8c1.8-1.8,2.8-4.2,2.8-6.8c0-2.6-1-5-2.8-6.8C132.5,250.1,130,249.1,127.4,249.1L127.4,249.1z M127.4,249.1"/>
	<path class="st0" d="M127.4,288.5c-5.3,0-9.6,4.3-9.6,9.6c0,5.3,4.3,9.6,9.6,9.6c5.3,0,9.6-4.3,9.6-9.6
		C137,292.8,132.7,288.5,127.4,288.5L127.4,288.5z M127.4,288.5"/>
	<path class="st0" d="M127.4,327.8c-5.3,0-9.6,4.3-9.6,9.6c0,5.3,4.3,9.6,9.6,9.6c5.3,0,9.6-4.3,9.6-9.6
		C137,332.2,132.7,327.8,127.4,327.8L127.4,327.8z M127.4,327.8"/>
	<g>
		<path class="st0" d="M127.4,367.3c-2.6,0-5,1-6.8,2.8c-1.8,1.8-2.8,4.2-2.8,6.8c0,2.6,1,5,2.8,6.8c1.8,1.8,4.2,2.8,6.8,2.8
			c2.6,0,5-1,6.8-2.8c1.8-1.8,2.8-4.2,2.8-6.8c0-2.6-1-5-2.8-6.8C132.5,368.3,130,367.3,127.4,367.3L127.4,367.3z M127.4,367.3"/>
		<path class="st0" d="M241,47.5c-9-17.3-21.9-32.6-37.6-44.2c-5-3.8-11.8-4.3-17.4-1.5c-5.6,2.8-9.1,8.5-9.1,14.8v50.6
			c0,18.6-15.2,33.8-33.8,33.8h-31c-18.6,0-33.8-15.2-33.8-33.8V16.6c0-6.3-3.5-12-9.1-14.8C63.4-1,56.7-0.4,51.7,3.4
			C36,15,23,30.2,14.1,47.6C4.9,65.5,0,85.7,0,105.9c0,40,18.2,76.9,50,101.3c9.9,7.6,15.9,19.7,15.9,32.2v143.9
			c0,5.3,4.3,9.6,9.6,9.6c5.3,0,9.6-4.3,9.6-9.6v-144c0-18.4-8.7-36.1-23.4-47.4c-27-20.7-42.5-52.1-42.5-86
			c0-32.5,14.8-63.4,39.8-83.9v45.3c0,29.3,23.8,53,53,53h31c29.3,0,53-23.8,53-53V21.9c25,20.5,39.8,51.5,39.8,83.9
			c0,34-15.4,65.4-42.5,86c-14.6,11.3-23.4,29-23.4,47.4v143.9c0,5.3,4.3,9.6,9.6,9.6c5.3,0,9.6-4.3,9.6-9.6V239.3
			c0-12.5,5.9-24.5,15.9-32.2c31.8-24.4,50-61.3,50-101.3C255,85.6,250.2,65.4,241,47.5L241,47.5z M241,47.5"/>
	</g>
</g>
</svg>
