<?xml version="1.0" encoding="utf-8"?>
<!-- Generator: Adobe Illustrator 19.2.1, SVG Export Plug-In . SVG Version: 6.00 Build 0)  -->
<svg version="1.1" id="Layer_1" xmlns="http://www.w3.org/2000/svg" xmlns:xlink="http://www.w3.org/1999/xlink" x="0px" y="0px"
	 viewBox="0 0 211 200" style="enable-background:new 0 0 211 200;" xml:space="preserve">
<style type="text/css">
	.st0{clip-path:url(#SVGID_2_);fill:#fff;}
</style>
<g>
	<g>
		<defs>
			<rect id="SVGID_1_" width="211" height="200"/>
		</defs>
		<clipPath id="SVGID_2_">
			<use xlink:href="#SVGID_1_"  style="overflow:visible;"/>
		</clipPath>
		<path class="st0" d="M155.1,1.3c-5.9-3-13.1-0.6-16.1,5.3L49.7,182.1c-3,5.9-0.6,13.1,5.3,16.1c1.7,0.9,3.6,1.3,5.4,1.3
			c4.4,0,8.6-2.4,10.7-6.6l89.2-175.5C163.4,11.5,161,4.3,155.1,1.3L155.1,1.3z M155.1,1.3"/>
	</g>
	<path class="st0" d="M91,59.1C91,34,70.6,13.6,45.5,13.6C20.4,13.6,0,34,0,59.1c0,25.1,20.4,45.5,45.5,45.5C70.6,104.6,91,84.2,91,59.1L91,59.1
		z M45.5,80.6C33.7,80.6,24,71,24,59.1c0-11.9,9.7-21.5,21.5-21.5c11.9,0,21.5,9.6,21.5,21.5C67,71,57.4,80.6,45.5,80.6L45.5,80.6z
		 M45.5,80.6"/>
	<path class="st0" d="M165.1,94.9c-25.1,0-45.5,20.4-45.5,45.5c0,25.1,20.4,45.5,45.5,45.5c25.1,0,45.5-20.4,45.5-45.5
		C210.6,115.3,190.2,94.9,165.1,94.9L165.1,94.9z M165.1,161.9c-11.9,0-21.5-9.6-21.5-21.5c0-11.9,9.6-21.5,21.5-21.5
		c11.9,0,21.5,9.6,21.5,21.5C186.6,152.3,177,161.9,165.1,161.9L165.1,161.9z M165.1,161.9"/>
</g>
</svg>
