<?xml version="1.0" encoding="utf-8"?>
<!-- Generator: Adobe Illustrator 19.2.1, SVG Export Plug-In . SVG Version: 6.00 Build 0)  -->
<svg version="1.1" id="Layer_1" xmlns="http://www.w3.org/2000/svg" xmlns:xlink="http://www.w3.org/1999/xlink" x="0px" y="0px"
	 viewBox="0 0 51.2 51.2" style="enable-background:new 0 0 51.2 51.2;" xml:space="preserve">
<style type="text/css">
	.st0{fill:#a8a8a8;}
</style>
<g>
	<path class="st0" d="M20.2,28.7l-17,17v-8.4c0-0.9-0.7-1.6-1.6-1.6c-0.9,0-1.6,0.7-1.6,1.6v12.3c0,0.2,0,0.4,0.1,0.6
		c0.2,0.4,0.5,0.7,0.9,0.9c0.2,0.1,0.4,0.1,0.6,0.1h12.3c0.9,0,1.6-0.7,1.6-1.6c0-0.9-0.7-1.6-1.6-1.6H5.5l17-17
		c0.6-0.6,0.6-1.6,0-2.3C21.8,28.1,20.8,28.1,20.2,28.7L20.2,28.7z M20.2,28.7"/>
	<path class="st0" d="M51.1,1c-0.2-0.4-0.5-0.7-0.9-0.9C50,0,49.8,0,49.6,0H37.3c-0.9,0-1.6,0.7-1.6,1.6c0,0.9,0.7,1.6,1.6,1.6h8.4
		l-17,17c-0.6,0.6-0.6,1.6,0,2.3c0.3,0.3,0.7,0.5,1.1,0.5c0.4,0,0.8-0.2,1.1-0.5l17-17v8.4c0,0.9,0.7,1.6,1.6,1.6
		c0.9,0,1.6-0.7,1.6-1.6V1.6C51.2,1.4,51.2,1.2,51.1,1L51.1,1z M51.1,1"/>
</g>
</svg>
