<?xml version="1.0" encoding="utf-8"?>
<!-- Generator: Adobe Illustrator 19.0.0, SVG Export Plug-In . SVG Version: 6.00 Build 0)  -->
<svg version="1.1" id="Layer_1" xmlns="http://www.w3.org/2000/svg" xmlns:xlink="http://www.w3.org/1999/xlink" x="0px" y="0px"
	 viewBox="0 0 370.4 223.2" style="enable-background:new 0 0 370.4 223.2;" xml:space="preserve">
<style type="text/css">
	.st0{fill:#C4C6C6;}
</style>
<g>
	<path class="st0" d="M364.4,166.4H364v-34.6c0-8.4-3.3-16.4-9.3-22.3l-4.2-4.2l-14.9-54.7c-3-10.9-13-18.6-24.3-18.6H268V12.4
		C268,5.6,262.4,0,255.6,0H12.4C5.6,0,0,5.6,0,12.4V166c0,6.8,5.6,12.4,12.4,12.4h22.5c-1,2.3-1.8,4.7-2.3,7.2H18.8
		c-3.3,0-6,2.7-6,6c0,3.3,2.7,6,6,6h13.8c2.8,14.6,15.6,25.6,31,25.6c15.4,0,28.2-11,31-25.6h92.5c2.1,3.8,6.2,6.4,10.8,6.4h51.2
		c4.7,0,8.7-2.6,10.8-6.4h15.7c2.8,14.6,15.6,25.6,31,25.6c15.4,0,28.2-11,31-25.6h26.6c3.3,0,6-2.7,6-6v-19.2
		C370.4,169.1,367.7,166.4,364.4,166.4L364.4,166.4z M337.3,102.4H294c-0.2,0-0.4-0.2-0.4-0.4V63.2H326c0.2,0,0.4,0,0.6,0
		L337.3,102.4z M311.3,44c5,0,9.5,2.9,11.7,7.2h-35.5c-3.3,0-6,2.7-6,6V102c0,6.8,5.6,12.4,12.4,12.4h48.7l3.5,3.5
		c3.7,3.7,5.7,8.6,5.7,13.9v15.4h-6.8c-3.3,0-6,2.7-6,6c0,3.3,2.7,6,6,6h6.8v7.2h-26c-0.1,0-0.1,0-0.2,0c-5.3-4-11.9-6.4-19-6.4
		c-7.1,0-13.7,2.4-19.1,6.4c-0.1,0-0.1,0-0.1,0H268V44H311.3z M275.8,185.6h-14.2v-6.8c0-0.1,0-0.3,0-0.4h16.5
		C277.1,180.7,276.3,183.1,275.8,185.6L275.8,185.6z M12,166v-38.8h203.5l-9,9c-2.3,2.3-2.3,6.1,0,8.5c1.2,1.2,2.7,1.8,4.2,1.8
		c1.5,0,3.1-0.6,4.2-1.8l19.2-19.2c0,0,0,0,0.1-0.1c0.1-0.1,0.2-0.2,0.3-0.4c0.1-0.1,0.1-0.2,0.2-0.2c0.1-0.1,0.1-0.2,0.2-0.2
		c0.1-0.1,0.1-0.2,0.2-0.3c0-0.1,0.1-0.2,0.1-0.2c0-0.1,0.1-0.2,0.1-0.3c0-0.1,0.1-0.2,0.1-0.3c0-0.1,0.1-0.2,0.1-0.3
		c0-0.1,0.1-0.2,0.1-0.3c0-0.1,0.1-0.2,0.1-0.3c0-0.1,0.1-0.2,0.1-0.3c0-0.1,0-0.2,0.1-0.3c0-0.1,0-0.2,0-0.2c0-0.4,0-0.8,0-1.2
		c0-0.1,0-0.2,0-0.2c0-0.1,0-0.2-0.1-0.3c0-0.1,0-0.2-0.1-0.3c0-0.1,0-0.2-0.1-0.3c0-0.1-0.1-0.2-0.1-0.3c0-0.1-0.1-0.2-0.1-0.3
		c0-0.1-0.1-0.2-0.1-0.3c0-0.1-0.1-0.2-0.1-0.3c0-0.1-0.1-0.2-0.1-0.2c-0.1-0.1-0.1-0.2-0.2-0.3c-0.1-0.1-0.1-0.2-0.2-0.2
		c-0.1-0.1-0.1-0.2-0.2-0.2c-0.1-0.1-0.2-0.2-0.3-0.4c0,0,0,0-0.1-0.1L215,97.8c-2.3-2.3-6.1-2.3-8.5,0c-2.3,2.3-2.3,6.1,0,8.5l9,9
		H12V12.4c0-0.2,0.2-0.4,0.4-0.4h243.2c0.2,0,0.4,0.2,0.4,0.4v154H82.8c-0.1,0-0.1,0-0.1,0c-5.3-4-11.9-6.4-19-6.4
		c-7.1,0-13.8,2.4-19.1,6.4c-0.1,0-0.1,0-0.2,0h-32C12.2,166.4,12,166.2,12,166L12,166z M185.6,178.8v6.8h-91
		c-0.5-2.5-1.3-4.9-2.3-7.2h93.3C185.6,178.5,185.6,178.7,185.6,178.8L185.6,178.8z M63.6,211.2c-10.8,0-19.6-8.8-19.6-19.6
		c0-10.8,8.8-19.6,19.6-19.6c10.8,0,19.6,8.8,19.6,19.6C83.2,202.4,74.4,211.2,63.6,211.2L63.6,211.2z M249.2,192H198
		c-0.2,0-0.4-0.2-0.4-0.4v-12.8c0-0.2,0.2-0.4,0.4-0.4h51.2c0.2,0,0.4,0.2,0.4,0.4v12.8c0,0,0,0,0,0v0
		C249.6,191.8,249.4,192,249.2,192L249.2,192z M306.8,211.2c-10.8,0-19.6-8.8-19.6-19.6c0-10.8,8.8-19.6,19.6-19.6
		c10.8,0,19.6,8.8,19.6,19.6C326.4,202.4,317.6,211.2,306.8,211.2L306.8,211.2z M358.4,185.6h-20.6c-0.5-2.5-1.3-4.9-2.3-7.2h22.9
		V185.6z M358.4,185.6"/>
</g>
</svg>
