<?xml version="1.0" encoding="utf-8"?>
<!-- Generator: Adobe Illustrator 19.2.1, SVG Export Plug-In . SVG Version: 6.00 Build 0)  -->
<svg version="1.1" id="Layer_1" xmlns="http://www.w3.org/2000/svg" xmlns:xlink="http://www.w3.org/1999/xlink" x="0px" y="0px"
	 viewBox="0 0 205.7 76.6" style="enable-background:new 0 0 205.7 76.6;" xml:space="preserve">
<style type="text/css">
	.st0{fill:#245E9E;}
	.st1{fill:#2B2A29;}
</style>
<path class="st0" d="M192.9,36.5c-0.9,0.3-3.1,0.7-5,0.7c-4.9,0-7.9-2-7.9-5.6c0-5.3,5.5-6.1,12.9-6.5V36.5z M205.7,43.4V16.5
	c0-11.8-6.1-16.5-18.3-16.5c-7,0-13.7,1.7-17.6,3.2l3.3,9.1c3.2-1.3,8.4-2.7,12.7-2.7c4.6,0,7.1,1.7,7.1,5.2v1.7
	c-13.5,0.7-25.6,3.5-25.6,15.3c0,9.5,7,14.7,21,14.7C195.4,46.6,202.3,45.1,205.7,43.4z M148.2,23.2c0,7.4-3.1,12.6-8.9,12.6
	c-1.6,0-3.3-0.3-4.1-0.7v-24c0.8-0.3,2.4-0.7,4-0.7C144.9,10.4,148.2,14.8,148.2,23.2z M161.8,23.2c0-14.9-8-23.2-22.8-23.2
	c-7.2,0-13.8,1.4-17.4,3.2v52.6h13.7V45.3c1.2,0.4,3.6,0.7,5.5,0.7C154.6,46,161.8,37,161.8,23.2z M117.1,12.1V0.4H80.1v11.8h11.4
	v33.5h14.1V12.1H117.1z M62.7,36.5c-0.9,0.3-3.1,0.7-5,0.7c-4.9,0-7.9-2-7.9-5.6c0-5.3,5.5-6.1,12.9-6.5V36.5z M75.6,43.4V16.5
	C75.6,4.6,69.4,0,57.3,0c-7,0-13.7,1.7-17.6,3.2l3.3,9.1c3.2-1.3,8.4-2.7,12.7-2.7c4.6,0,7.1,1.7,7.1,5.2v1.7
	C49.2,17.3,37.2,20,37.2,31.9c0,9.5,7,14.7,21,14.7C65.3,46.6,72.2,45.1,75.6,43.4z M32.7,43.5l-4.2-10c-1.4,1.1-3.6,1.7-5.9,1.7
	c-4.8,0-8.4-4.6-8.4-12.1c0-7.5,3.3-12,8.4-12c2.3,0,4.5,0.6,5.9,1.7l4.2-9.7C29.7,1.2,26.2,0,20.4,0C9.5,0,0,7.6,0,23.3
	c0,15.6,9.5,23.3,20.4,23.3C26.2,46.6,29.7,45.5,32.7,43.5z"/>
<path class="st1" d="M152.6,61.4L152.6,61.4l-2,6.1h4L152.6,61.4z M159.2,71.9c0.1,0.3,0.1,0.5,0.2,0.6c0,0.2,0,0.3-0.1,0.4
	c-0.1,0.1-0.2,0.1-0.4,0.1c-0.2,0-0.5,0-0.9,0c-0.4,0-0.7,0-0.9,0c-0.2,0-0.4,0-0.5-0.1c-0.1,0-0.2-0.1-0.2-0.1
	c0-0.1-0.1-0.1-0.1-0.2l-0.9-2.9h-5.4l-0.9,2.8c0,0.1-0.1,0.2-0.1,0.3c0,0.1-0.1,0.1-0.2,0.2c-0.1,0-0.3,0.1-0.5,0.1
	c-0.2,0-0.5,0-0.8,0c-0.3,0-0.6,0-0.8,0c-0.2,0-0.3-0.1-0.4-0.2c-0.1-0.1-0.1-0.2-0.1-0.4c0-0.2,0.1-0.4,0.2-0.6l4.4-12.7
	c0-0.1,0.1-0.2,0.2-0.3c0.1-0.1,0.2-0.1,0.3-0.2c0.1,0,0.3-0.1,0.5-0.1c0.2,0,0.5,0,0.9,0c0.4,0,0.8,0,1,0c0.3,0,0.5,0,0.6,0.1
	c0.1,0,0.2,0.1,0.3,0.2c0.1,0.1,0.1,0.2,0.2,0.3L159.2,71.9z M140.6,63.6c0,0.2,0,0.4,0,0.6c0,0.2,0,0.3-0.1,0.4
	c0,0.1-0.1,0.2-0.1,0.2c-0.1,0-0.1,0.1-0.2,0.1h-2.5v7.8c0,0.1,0,0.1-0.1,0.2c0,0.1-0.1,0.1-0.2,0.1c-0.1,0-0.2,0.1-0.4,0.1
	c-0.2,0-0.4,0-0.7,0c-0.3,0-0.5,0-0.7,0c-0.2,0-0.3,0-0.4-0.1c-0.1,0-0.2-0.1-0.2-0.1c0-0.1-0.1-0.1-0.1-0.2v-7.8h-2.5
	c-0.1,0-0.1,0-0.2-0.1c-0.1,0-0.1-0.1-0.1-0.2c0-0.1-0.1-0.2-0.1-0.4c0-0.2,0-0.4,0-0.6c0-0.2,0-0.4,0-0.6c0-0.2,0-0.3,0.1-0.4
	c0-0.1,0.1-0.2,0.1-0.2c0.1,0,0.1-0.1,0.2-0.1h7.8c0.1,0,0.1,0,0.2,0.1c0.1,0,0.1,0.1,0.1,0.2c0,0.1,0.1,0.2,0.1,0.4
	C140.6,63.2,140.6,63.4,140.6,63.6z M128.3,67.7c0-0.5,0-0.9-0.1-1.3c-0.1-0.4-0.2-0.8-0.4-1.1c-0.2-0.3-0.4-0.5-0.7-0.7
	c-0.3-0.2-0.7-0.3-1.2-0.3c-0.4,0-0.8,0.1-1.1,0.2c-0.3,0.2-0.6,0.4-0.8,0.7c-0.2,0.3-0.4,0.6-0.5,1.1c-0.1,0.4-0.2,0.9-0.2,1.4
	c0,0.5,0,0.9,0.1,1.3c0.1,0.4,0.2,0.8,0.4,1.1c0.2,0.3,0.4,0.5,0.7,0.7c0.3,0.2,0.7,0.2,1.2,0.2c0.4,0,0.8-0.1,1.1-0.2
	c0.3-0.2,0.6-0.4,0.8-0.7c0.2-0.3,0.3-0.6,0.4-1C128.3,68.7,128.3,68.2,128.3,67.7z M131.2,67.6c0,0.8-0.1,1.6-0.3,2.3
	c-0.2,0.7-0.6,1.3-1,1.8c-0.5,0.5-1,0.9-1.7,1.2c-0.7,0.3-1.5,0.4-2.4,0.4c-0.9,0-1.6-0.1-2.3-0.4c-0.7-0.2-1.2-0.6-1.6-1.1
	c-0.4-0.5-0.7-1-1-1.7c-0.2-0.7-0.3-1.5-0.3-2.3c0-0.8,0.1-1.6,0.3-2.3c0.2-0.7,0.6-1.3,1-1.8c0.5-0.5,1-0.9,1.7-1.2
	c0.7-0.3,1.5-0.4,2.4-0.4c0.9,0,1.7,0.1,2.3,0.4c0.7,0.2,1.2,0.6,1.6,1.1c0.4,0.5,0.7,1,0.9,1.7C131.1,65.9,131.2,66.7,131.2,67.6z
	 M110.5,68.4h-1.1c-0.5,0-0.8,0-1.1,0.1c-0.3,0.1-0.6,0.2-0.8,0.3c-0.2,0.1-0.3,0.3-0.4,0.5c-0.1,0.2-0.1,0.4-0.1,0.6
	c0,0.4,0.1,0.7,0.4,1c0.3,0.2,0.6,0.4,1.1,0.4c0.4,0,0.7-0.1,1.1-0.3c0.3-0.2,0.7-0.5,1-0.9V68.4z M113.3,72.7c0,0.1,0,0.2-0.1,0.2
	c-0.1,0.1-0.2,0.1-0.4,0.1c-0.2,0-0.4,0-0.7,0c-0.3,0-0.6,0-0.7,0c-0.2,0-0.3-0.1-0.3-0.1c-0.1-0.1-0.1-0.1-0.1-0.2v-0.8
	c-0.4,0.4-0.9,0.8-1.4,1c-0.5,0.2-1.1,0.4-1.7,0.4c-0.5,0-1-0.1-1.4-0.2c-0.4-0.1-0.8-0.3-1.1-0.6c-0.3-0.3-0.6-0.6-0.7-1
	c-0.2-0.4-0.3-0.9-0.3-1.4c0-0.6,0.1-1.1,0.3-1.5c0.2-0.4,0.6-0.8,1-1.1c0.4-0.3,1-0.5,1.7-0.6c0.7-0.1,1.4-0.2,2.3-0.2h1v-0.6
	c0-0.3,0-0.6-0.1-0.8c-0.1-0.2-0.2-0.4-0.3-0.6c-0.1-0.2-0.3-0.3-0.6-0.3c-0.2-0.1-0.5-0.1-0.9-0.1c-0.5,0-0.9,0.1-1.2,0.2
	c-0.4,0.1-0.7,0.2-1,0.3c-0.3,0.1-0.5,0.2-0.7,0.3c-0.2,0.1-0.3,0.2-0.5,0.2c-0.1,0-0.2,0-0.2-0.1c-0.1-0.1-0.1-0.1-0.2-0.2
	c0-0.1-0.1-0.2-0.1-0.4c0-0.1,0-0.3,0-0.5c0-0.2,0-0.4,0.1-0.5c0-0.1,0.1-0.2,0.2-0.4c0.1-0.1,0.3-0.2,0.5-0.4
	c0.3-0.1,0.6-0.2,0.9-0.4c0.3-0.1,0.7-0.2,1.1-0.3c0.4-0.1,0.8-0.1,1.3-0.1c0.8,0,1.4,0.1,2,0.2c0.5,0.2,1,0.4,1.4,0.7
	c0.4,0.3,0.6,0.7,0.8,1.2c0.2,0.5,0.2,1.1,0.2,1.8V72.7z M103.2,72.8c0,0.1,0,0.1-0.1,0.2c0,0-0.1,0.1-0.2,0.1c-0.1,0-0.2,0-0.4,0.1
	c-0.2,0-0.4,0-0.7,0c-0.3,0-0.6,0-0.8,0c-0.2,0-0.4,0-0.5-0.1c-0.1,0-0.2-0.1-0.3-0.1c0,0-0.1-0.1-0.1-0.2l-0.9-2.4
	c-0.1-0.3-0.2-0.6-0.4-0.8c-0.1-0.2-0.3-0.4-0.4-0.5c-0.2-0.1-0.3-0.2-0.5-0.3c-0.2-0.1-0.4-0.1-0.7-0.1h-0.6v4c0,0.1,0,0.1-0.1,0.2
	c-0.1,0-0.1,0.1-0.2,0.1c-0.1,0-0.3,0.1-0.4,0.1c-0.2,0-0.4,0-0.6,0c-0.3,0-0.5,0-0.7,0c-0.2,0-0.3,0-0.4-0.1
	c-0.1,0-0.2-0.1-0.2-0.1c0,0-0.1-0.1-0.1-0.2v-10c0-0.1,0-0.1,0.1-0.2c0,0,0.1-0.1,0.2-0.1c0.1,0,0.3-0.1,0.4-0.1c0.2,0,0.4,0,0.7,0
	c0.2,0,0.5,0,0.6,0c0.2,0,0.3,0,0.4,0.1c0.1,0,0.2,0.1,0.2,0.1c0,0,0.1,0.1,0.1,0.2v3.8h0.6c0.2,0,0.4,0,0.6-0.1
	c0.2-0.1,0.4-0.1,0.5-0.3c0.2-0.1,0.3-0.3,0.4-0.5c0.1-0.2,0.3-0.5,0.4-0.8l0.8-2.1c0-0.1,0.1-0.1,0.1-0.2c0.1-0.1,0.1-0.1,0.2-0.1
	c0.1,0,0.3-0.1,0.4-0.1c0.2,0,0.4,0,0.7,0c0.3,0,0.5,0,0.7,0c0.2,0,0.3,0,0.4,0.1c0.1,0,0.2,0.1,0.2,0.1c0,0,0.1,0.1,0.1,0.2
	c0,0.1,0,0.2,0,0.3c0,0.1-0.1,0.2-0.2,0.4l-0.8,1.9c-0.2,0.4-0.3,0.7-0.5,1c-0.2,0.3-0.4,0.5-0.5,0.7c-0.2,0.2-0.4,0.3-0.5,0.4
	c-0.2,0.1-0.4,0.2-0.5,0.2v0c0.2,0.1,0.4,0.2,0.6,0.3c0.2,0.1,0.4,0.3,0.6,0.4c0.2,0.2,0.4,0.4,0.5,0.7c0.2,0.3,0.3,0.6,0.5,0.9
	l1,2.2c0,0.1,0.1,0.2,0.1,0.2c0,0.1,0,0.1,0.1,0.2C103.2,72.6,103.2,72.6,103.2,72.8C103.2,72.7,103.2,72.7,103.2,72.8z M91.1,72.7
	c0,0.1,0,0.1-0.1,0.2c0,0.1-0.1,0.1-0.2,0.1c-0.1,0-0.2,0.1-0.4,0.1c-0.2,0-0.4,0-0.7,0c-0.3,0-0.5,0-0.7,0c-0.2,0-0.3,0-0.4-0.1
	c-0.1,0-0.2-0.1-0.2-0.1c0,0-0.1-0.1-0.1-0.2v-4.4c0-0.3,0-0.6,0-1c0-0.3,0-0.7,0.1-1c-0.2,0.3-0.4,0.6-0.6,0.9
	c-0.2,0.3-0.4,0.6-0.6,0.9l-3.3,4.5c-0.1,0.1-0.1,0.1-0.2,0.2c-0.1,0.1-0.1,0.1-0.2,0.1c-0.1,0-0.2,0.1-0.3,0.1c-0.1,0-0.3,0-0.5,0
	c-0.3,0-0.5,0-0.6,0c-0.2,0-0.3,0-0.4-0.1c-0.1,0-0.2-0.1-0.2-0.1c0-0.1-0.1-0.1-0.1-0.2v-9.9c0-0.1,0-0.1,0.1-0.2
	c0-0.1,0.1-0.1,0.2-0.1c0.1,0,0.2-0.1,0.4-0.1c0.2,0,0.4,0,0.7,0c0.5,0,0.9,0,1.1,0.1c0.2,0.1,0.3,0.2,0.3,0.3v4.4
	c0,0.3,0,0.6,0,0.9c0,0.3,0,0.6-0.1,0.9c0.2-0.3,0.4-0.6,0.5-0.9c0.2-0.3,0.4-0.6,0.6-0.8l3.4-4.6c0.1-0.1,0.1-0.1,0.2-0.2
	c0.1-0.1,0.2-0.1,0.2-0.1c0.1,0,0.2-0.1,0.4-0.1c0.1,0,0.3,0,0.6,0c0.3,0,0.5,0,0.6,0c0.2,0,0.3,0,0.4,0.1c0.1,0,0.2,0.1,0.2,0.1
	c0,0.1,0.1,0.1,0.1,0.2V72.7z M78.5,72.6c0,0.1,0,0.1-0.1,0.2c0,0.1-0.1,0.1-0.2,0.1c-0.1,0-0.2,0.1-0.4,0.1c-0.2,0-0.4,0-0.7,0
	c-0.3,0-0.5,0-0.7,0c-0.2,0-0.3,0-0.4-0.1c-0.1,0-0.2-0.1-0.2-0.1c0-0.1-0.1-0.1-0.1-0.2v-3.9h-4v3.9c0,0.1,0,0.1-0.1,0.2
	c0,0.1-0.1,0.1-0.2,0.1c-0.1,0-0.2,0.1-0.4,0.1c-0.2,0-0.4,0-0.7,0c-0.3,0-0.5,0-0.7,0c-0.2,0-0.3,0-0.4-0.1c-0.1,0-0.2-0.1-0.2-0.1
	c0-0.1-0.1-0.1-0.1-0.2v-9.9c0-0.1,0-0.1,0.1-0.2c0-0.1,0.1-0.1,0.2-0.1c0.1,0,0.2-0.1,0.4-0.1c0.2,0,0.4,0,0.7,0c0.3,0,0.5,0,0.7,0
	c0.2,0,0.3,0,0.4,0.1c0.1,0,0.2,0.1,0.2,0.1c0,0.1,0.1,0.1,0.1,0.2v3.7h4v-3.7c0-0.1,0-0.1,0.1-0.2c0-0.1,0.1-0.1,0.2-0.1
	c0.1,0,0.2-0.1,0.4-0.1c0.2,0,0.4,0,0.7,0c0.3,0,0.5,0,0.7,0c0.2,0,0.3,0,0.4,0.1c0.1,0,0.2,0.1,0.2,0.1c0,0.1,0.1,0.1,0.1,0.2V72.6
	z M67.1,72.4c0.1,0.1,0.1,0.2,0.1,0.3c0,0.1-0.1,0.1-0.2,0.2c-0.1,0.1-0.3,0.1-0.5,0.1c-0.2,0-0.5,0-0.9,0c-0.3,0-0.6,0-0.8,0
	c-0.2,0-0.4,0-0.5-0.1c-0.1,0-0.2-0.1-0.3-0.1c-0.1,0-0.1-0.1-0.1-0.2l-1.8-3.5l-1.8,3.5c0,0.1-0.1,0.1-0.1,0.2
	c-0.1,0-0.1,0.1-0.2,0.1c-0.1,0-0.3,0.1-0.5,0.1c-0.2,0-0.4,0-0.8,0c-0.3,0-0.6,0-0.8,0c-0.2,0-0.3-0.1-0.4-0.1
	c-0.1-0.1-0.1-0.1-0.1-0.2c0-0.1,0-0.2,0.1-0.3l2.7-4.9L57.8,63c-0.1-0.1-0.1-0.2-0.1-0.3c0-0.1,0-0.2,0.1-0.2
	c0.1-0.1,0.2-0.1,0.5-0.1c0.2,0,0.5,0,0.9,0c0.3,0,0.6,0,0.8,0c0.2,0,0.3,0,0.5,0.1c0.1,0,0.2,0.1,0.2,0.1c0.1,0,0.1,0.1,0.1,0.2
	l1.8,3.3l1.7-3.3c0-0.1,0.1-0.1,0.1-0.2c0,0,0.1-0.1,0.2-0.1c0.1,0,0.2,0,0.4-0.1c0.2,0,0.4,0,0.7,0c0.3,0,0.6,0,0.8,0
	c0.2,0,0.3,0,0.4,0.1c0.1,0.1,0.1,0.1,0.1,0.2c0,0.1,0,0.2-0.1,0.4l-2.5,4.5L67.1,72.4z M53.7,66.6c0-0.8-0.1-1.4-0.5-1.8
	c-0.3-0.5-0.9-0.7-1.6-0.7c-0.4,0-0.7,0.1-0.9,0.2c-0.3,0.1-0.5,0.3-0.7,0.5c-0.2,0.2-0.3,0.5-0.4,0.8c-0.1,0.3-0.1,0.6-0.2,1H53.7z
	 M56.4,67.4c0,0.3-0.1,0.6-0.2,0.8c-0.2,0.2-0.4,0.2-0.6,0.2h-6c0,0.4,0,0.8,0.2,1.1c0.1,0.3,0.3,0.6,0.5,0.9
	c0.2,0.2,0.5,0.4,0.8,0.5c0.3,0.1,0.8,0.2,1.2,0.2c0.5,0,0.9,0,1.3-0.1c0.4-0.1,0.7-0.1,1-0.2c0.3-0.1,0.5-0.2,0.7-0.2
	c0.2-0.1,0.3-0.1,0.4-0.1c0.1,0,0.1,0,0.2,0c0,0,0.1,0.1,0.1,0.1c0,0.1,0,0.2,0.1,0.3c0,0.1,0,0.3,0,0.5c0,0.2,0,0.3,0,0.4
	c0,0.1,0,0.2,0,0.3c0,0.1,0,0.2-0.1,0.2c0,0.1-0.1,0.1-0.1,0.2c0,0-0.2,0.1-0.4,0.2c-0.2,0.1-0.5,0.2-0.8,0.3
	c-0.3,0.1-0.7,0.2-1.1,0.2c-0.4,0.1-0.9,0.1-1.4,0.1c-0.9,0-1.6-0.1-2.3-0.3c-0.7-0.2-1.2-0.6-1.7-1c-0.4-0.5-0.8-1-1-1.7
	c-0.2-0.7-0.3-1.5-0.3-2.4c0-0.9,0.1-1.7,0.3-2.4c0.2-0.7,0.6-1.3,1-1.8c0.4-0.5,1-0.9,1.6-1.1c0.6-0.3,1.3-0.4,2.1-0.4
	c0.8,0,1.5,0.1,2.1,0.4c0.6,0.2,1.1,0.6,1.4,1c0.4,0.4,0.7,0.9,0.8,1.5c0.2,0.6,0.3,1.2,0.3,1.9V67.4z M45.9,63.6c0,0.2,0,0.4,0,0.6
	c0,0.2,0,0.3-0.1,0.4c0,0.1-0.1,0.2-0.1,0.2c-0.1,0-0.1,0.1-0.2,0.1h-2.5v7.8c0,0.1,0,0.1-0.1,0.2c0,0.1-0.1,0.1-0.2,0.1
	c-0.1,0-0.2,0.1-0.4,0.1c-0.2,0-0.4,0-0.7,0c-0.3,0-0.5,0-0.7,0c-0.2,0-0.3,0-0.4-0.1c-0.1,0-0.2-0.1-0.2-0.1c0-0.1-0.1-0.1-0.1-0.2
	v-7.8h-2.5c-0.1,0-0.1,0-0.2-0.1c-0.1,0-0.1-0.1-0.1-0.2c0-0.1-0.1-0.2-0.1-0.4c0-0.2,0-0.4,0-0.6c0-0.2,0-0.4,0-0.6
	c0-0.2,0-0.3,0.1-0.4c0-0.1,0.1-0.2,0.1-0.2c0.1,0,0.1-0.1,0.2-0.1h7.8c0.1,0,0.1,0,0.2,0.1c0.1,0,0.1,0.1,0.1,0.2
	c0,0.1,0.1,0.2,0.1,0.4C45.9,63.2,45.9,63.4,45.9,63.6z M35.7,72.6c0,0.1,0,0.1-0.1,0.2c0,0.1-0.1,0.1-0.2,0.1
	c-0.1,0-0.2,0.1-0.4,0.1c-0.2,0-0.4,0-0.7,0c-0.3,0-0.5,0-0.7,0c-0.2,0-0.3,0-0.4-0.1c-0.1,0-0.2-0.1-0.2-0.1c0-0.1-0.1-0.1-0.1-0.2
	v-3.9h-4v3.9c0,0.1,0,0.1-0.1,0.2c0,0.1-0.1,0.1-0.2,0.1c-0.1,0-0.2,0.1-0.4,0.1c-0.2,0-0.4,0-0.7,0c-0.3,0-0.5,0-0.7,0
	c-0.2,0-0.3,0-0.4-0.1c-0.1,0-0.2-0.1-0.2-0.1c0-0.1-0.1-0.1-0.1-0.2v-9.9c0-0.1,0-0.1,0.1-0.2c0-0.1,0.1-0.1,0.2-0.1
	c0.1,0,0.2-0.1,0.4-0.1c0.2,0,0.4,0,0.7,0c0.3,0,0.5,0,0.7,0c0.2,0,0.3,0,0.4,0.1c0.1,0,0.2,0.1,0.2,0.1c0,0.1,0.1,0.1,0.1,0.2v3.7
	h4v-3.7c0-0.1,0-0.1,0.1-0.2c0-0.1,0.1-0.1,0.2-0.1c0.1,0,0.2-0.1,0.4-0.1c0.2,0,0.4,0,0.7,0c0.3,0,0.5,0,0.7,0c0.2,0,0.3,0,0.4,0.1
	c0.1,0,0.2,0.1,0.2,0.1c0,0.1,0.1,0.1,0.1,0.2V72.6z M20.6,68.4h-1.1c-0.5,0-0.8,0-1.1,0.1c-0.3,0.1-0.6,0.2-0.8,0.3
	c-0.2,0.1-0.3,0.3-0.4,0.5c-0.1,0.2-0.1,0.4-0.1,0.6c0,0.4,0.1,0.7,0.4,1c0.3,0.2,0.6,0.4,1.1,0.4c0.4,0,0.7-0.1,1.1-0.3
	c0.3-0.2,0.7-0.5,1-0.9V68.4z M23.4,72.7c0,0.1,0,0.2-0.1,0.2C23.2,73,23.1,73,22.9,73c-0.2,0-0.4,0-0.7,0c-0.3,0-0.6,0-0.7,0
	c-0.2,0-0.3-0.1-0.3-0.1c-0.1-0.1-0.1-0.1-0.1-0.2v-0.8c-0.4,0.4-0.9,0.8-1.4,1c-0.5,0.2-1.1,0.4-1.7,0.4c-0.5,0-1-0.1-1.4-0.2
	c-0.4-0.1-0.8-0.3-1.1-0.6c-0.3-0.3-0.6-0.6-0.7-1c-0.2-0.4-0.3-0.9-0.3-1.4c0-0.6,0.1-1.1,0.3-1.5c0.2-0.4,0.6-0.8,1-1.1
	c0.4-0.3,1-0.5,1.7-0.6c0.7-0.1,1.4-0.2,2.3-0.2h1v-0.6c0-0.3,0-0.6-0.1-0.8c-0.1-0.2-0.2-0.4-0.3-0.6c-0.1-0.2-0.3-0.3-0.6-0.3
	c-0.2-0.1-0.5-0.1-0.9-0.1c-0.5,0-0.9,0.1-1.2,0.2c-0.4,0.1-0.7,0.2-1,0.3c-0.3,0.1-0.5,0.2-0.7,0.3c-0.2,0.1-0.3,0.2-0.5,0.2
	c-0.1,0-0.2,0-0.2-0.1C15.1,65.1,15,65,15,64.9c0-0.1-0.1-0.2-0.1-0.4c0-0.1,0-0.3,0-0.5c0-0.2,0-0.4,0.1-0.5c0-0.1,0.1-0.2,0.2-0.4
	c0.1-0.1,0.3-0.2,0.5-0.4c0.3-0.1,0.6-0.2,0.9-0.4c0.3-0.1,0.7-0.2,1.1-0.3c0.4-0.1,0.8-0.1,1.3-0.1c0.8,0,1.4,0.1,2,0.2
	c0.5,0.2,1,0.4,1.4,0.7c0.4,0.3,0.6,0.7,0.8,1.2c0.2,0.5,0.2,1.1,0.2,1.8V72.7z M13,70.8c0,0.2,0,0.3,0,0.5c0,0.1,0,0.2-0.1,0.3
	c0,0.1,0,0.2-0.1,0.2c0,0.1-0.1,0.1-0.2,0.2c-0.1,0.1-0.2,0.2-0.5,0.3c-0.2,0.1-0.5,0.3-0.9,0.4c-0.3,0.1-0.7,0.2-1.1,0.3
	c-0.4,0.1-0.9,0.1-1.4,0.1c-1,0-1.9-0.2-2.7-0.5c-0.8-0.3-1.5-0.8-2-1.4c-0.6-0.6-1-1.4-1.3-2.3c-0.3-0.9-0.4-1.9-0.4-3.1
	c0-1.2,0.2-2.3,0.5-3.2c0.3-0.9,0.8-1.7,1.4-2.4c0.6-0.6,1.3-1.1,2.1-1.5c0.8-0.3,1.7-0.5,2.7-0.5c0.4,0,0.8,0,1.1,0.1
	c0.4,0.1,0.7,0.2,1,0.3c0.3,0.1,0.6,0.2,0.8,0.4c0.2,0.1,0.4,0.3,0.5,0.4c0.1,0.1,0.2,0.2,0.2,0.2c0,0.1,0.1,0.2,0.1,0.3
	c0,0.1,0,0.2,0.1,0.4c0,0.1,0,0.3,0,0.5c0,0.2,0,0.4,0,0.6c0,0.2,0,0.3-0.1,0.4c0,0.1-0.1,0.2-0.1,0.2c-0.1,0-0.1,0.1-0.2,0.1
	c-0.1,0-0.2-0.1-0.4-0.2c-0.2-0.1-0.4-0.3-0.7-0.4c-0.3-0.2-0.6-0.3-1-0.4c-0.4-0.1-0.8-0.2-1.3-0.2c-0.6,0-1.1,0.1-1.5,0.3
	c-0.4,0.2-0.8,0.6-1.1,1c-0.3,0.4-0.6,1-0.7,1.6c-0.2,0.6-0.2,1.3-0.2,2.1c0,0.8,0.1,1.6,0.3,2.2c0.2,0.6,0.4,1.1,0.7,1.5
	c0.3,0.4,0.7,0.7,1.2,0.9c0.5,0.2,1,0.3,1.5,0.3c0.5,0,1-0.1,1.3-0.2c0.4-0.1,0.7-0.3,1-0.4c0.3-0.1,0.5-0.3,0.7-0.4
	c0.2-0.1,0.3-0.2,0.4-0.2c0.1,0,0.1,0,0.2,0c0,0,0.1,0.1,0.1,0.2c0,0.1,0,0.2,0.1,0.4C13,70.4,13,70.6,13,70.8z"/>
<path class="st1" d="M202.6,60.9h-1.5c-0.6,0-1.1,0-1.4,0.1c-0.3,0.1-0.6,0.2-0.8,0.4c-0.2,0.2-0.3,0.4-0.4,0.7
	c-0.1,0.3-0.1,0.5-0.1,0.8c0,0.3,0,0.6,0.1,0.8c0.1,0.3,0.2,0.5,0.4,0.7c0.2,0.2,0.5,0.3,0.8,0.4c0.3,0.1,0.8,0.2,1.3,0.2h1.5V60.9z
	 M205.5,72.6c0,0.1,0,0.1-0.1,0.2c0,0.1-0.1,0.1-0.2,0.1c-0.1,0-0.3,0.1-0.4,0.1c-0.2,0-0.4,0-0.7,0c-0.3,0-0.5,0-0.7,0
	c-0.2,0-0.3,0-0.4-0.1c-0.1,0-0.2-0.1-0.2-0.1c0-0.1-0.1-0.1-0.1-0.2v-5.4h-1.1c-0.4,0-0.8,0-1,0.1c-0.2,0.1-0.4,0.2-0.6,0.4
	c-0.2,0.2-0.3,0.4-0.5,0.7c-0.1,0.3-0.3,0.6-0.4,1l-1.1,3.1c0,0.1-0.1,0.2-0.1,0.2c-0.1,0.1-0.2,0.1-0.3,0.2c-0.1,0-0.3,0.1-0.5,0.1
	c-0.2,0-0.5,0-0.8,0c-0.3,0-0.6,0-0.8,0c-0.2,0-0.3-0.1-0.5-0.1c-0.1,0-0.2-0.1-0.2-0.1c0-0.1,0-0.1,0-0.2c0-0.1,0-0.2,0-0.3
	c0-0.1,0.1-0.3,0.2-0.5l1.1-2.8c0.1-0.4,0.3-0.7,0.4-1c0.1-0.3,0.3-0.5,0.5-0.7c0.2-0.2,0.4-0.4,0.6-0.5c0.2-0.1,0.4-0.3,0.7-0.4
	c-0.5-0.1-0.9-0.3-1.2-0.5c-0.4-0.2-0.6-0.5-0.9-0.7c-0.2-0.3-0.4-0.6-0.5-1c-0.1-0.4-0.2-0.8-0.2-1.3c0-0.7,0.1-1.2,0.3-1.8
	c0.2-0.5,0.6-1,1-1.3c0.4-0.4,1-0.7,1.7-0.9c0.7-0.2,1.6-0.3,2.8-0.3h3.5c0.2,0,0.4,0.1,0.6,0.2c0.2,0.1,0.2,0.4,0.2,0.7V72.6z
	 M185.3,67.7c0-0.5,0-0.9-0.1-1.3c-0.1-0.4-0.2-0.8-0.4-1.1c-0.2-0.3-0.4-0.5-0.7-0.7c-0.3-0.2-0.7-0.3-1.2-0.3
	c-0.4,0-0.8,0.1-1.1,0.2c-0.3,0.2-0.6,0.4-0.8,0.7c-0.2,0.3-0.4,0.6-0.5,1.1c-0.1,0.4-0.2,0.9-0.2,1.4c0,0.5,0,0.9,0.1,1.3
	c0.1,0.4,0.2,0.8,0.4,1.1c0.2,0.3,0.4,0.5,0.7,0.7c0.3,0.2,0.7,0.2,1.2,0.2c0.4,0,0.8-0.1,1.1-0.2c0.3-0.2,0.6-0.4,0.8-0.7
	c0.2-0.3,0.3-0.6,0.4-1C185.2,68.7,185.3,68.2,185.3,67.7z M188.1,67.6c0,0.8-0.1,1.6-0.3,2.3c-0.2,0.7-0.6,1.3-1,1.8
	c-0.5,0.5-1,0.9-1.7,1.2c-0.7,0.3-1.5,0.4-2.4,0.4c-0.9,0-1.6-0.1-2.3-0.4c-0.7-0.2-1.2-0.6-1.6-1.1c-0.4-0.5-0.7-1-1-1.7
	c-0.2-0.7-0.3-1.5-0.3-2.3c0-0.8,0.1-1.6,0.3-2.3c0.2-0.7,0.6-1.3,1-1.8c0.5-0.5,1-0.9,1.7-1.2c0.7-0.3,1.5-0.4,2.4-0.4
	c0.9,0,1.7,0.1,2.3,0.4c0.7,0.2,1.2,0.6,1.6,1.1c0.4,0.5,0.7,1,0.9,1.7C188,65.9,188.1,66.7,188.1,67.6z M172.1,64.6h-2.4
	c-0.1,0.9-0.3,1.7-0.4,2.4c-0.1,0.7-0.3,1.2-0.5,1.7c-0.2,0.5-0.3,0.9-0.5,1.2c-0.2,0.3-0.4,0.6-0.5,0.8h4.3V64.6z M166.4,76.2
	c0,0.1,0,0.1-0.1,0.2c0,0-0.1,0.1-0.2,0.1c-0.1,0-0.2,0.1-0.4,0.1c-0.2,0-0.3,0-0.6,0c-0.2,0-0.4,0-0.6,0c-0.2,0-0.3,0-0.4-0.1
	s-0.2-0.1-0.2-0.1c0,0-0.1-0.1-0.1-0.2v-5c0-0.2,0-0.4,0.1-0.5c0.1-0.1,0.2-0.1,0.4-0.1h0.5c0.2-0.3,0.5-0.7,0.7-1.1
	c0.2-0.4,0.4-0.9,0.6-1.5c0.2-0.6,0.3-1.3,0.5-2.1c0.2-0.8,0.3-1.8,0.4-2.9c0-0.1,0-0.2,0.1-0.4c0-0.1,0.1-0.2,0.1-0.3
	c0.1-0.1,0.1-0.1,0.2-0.2c0.1,0,0.2-0.1,0.3-0.1h6.1c0.3,0,0.5,0.1,0.6,0.2c0.1,0.2,0.2,0.4,0.2,0.7v7.5h1.1c0.2,0,0.3,0,0.4,0.1
	c0.1,0.1,0.1,0.2,0.1,0.5v5c0,0.1,0,0.1-0.1,0.2c0,0-0.1,0.1-0.2,0.1c-0.1,0-0.2,0.1-0.4,0.1c-0.2,0-0.4,0-0.6,0c-0.2,0-0.4,0-0.6,0
	c-0.2,0-0.3,0-0.4-0.1c-0.1,0-0.2-0.1-0.2-0.1c0,0-0.1-0.1-0.1-0.2V73h-7.8V76.2z"/>
</svg>
